#!OML:ASF H:\Dans Jumps\Project 1\Capture day 1\Session 1\subject.ASF
:FULLY-SPECIFIED
:DEGREES
115
root 0.53283 17.5555 -13.7731 5.12329 -1.56133 -1.88234
lowerback -2.7206 -0.321317 0.421745
upperback 2.38762 -0.511612 1.72018
thorax 3.99734 -0.269185 1.50551
lowerneck -13.9169 0.223971 -2.15459
upperneck 30.0512 0.638864 0.841325
head 12.1916 0.14323 0.781673
rclavicle -7.7526e-015 -7.7526e-015
rhumerus -27.7788 -17.9983 -77.8532
rradius 23.8211
rwrist 32.0065
rhand -19.5398 -26.3653
rfingers 7.12502
rthumb 6.7841 -56.2366
lclavicle -7.7526e-015 -7.7526e-015
lhumerus -25.0454 3.63363 86.1871
lradius 16.3086
lwrist 1.69714
lhand -25.4394 -3.88007
lfingers 7.12502
lthumb 1.08722 26.0969
rfemur -10.9038 -2.53536 20.1032
rtibia 19.9102
rfoot -13.4216 -1.78784
rtoes 10.5532
lfemur -9.76008 6.11278 -17.5487
ltibia 18.357
lfoot -11.2292 4.65099
ltoes -0.615391
116
root 0.533261 17.5553 -13.773 5.12631 -1.56025 -1.88703
lowerback -2.72083 -0.322103 0.424171
upperback 2.3849 -0.512837 1.72319
thorax 3.99469 -0.26976 1.50718
lowerneck -13.9165 0.225483 -2.16241
upperneck 30.0484 0.642025 0.845104
head 12.1903 0.144265 0.784883
rclavicle -1.64494e-014 2.94201e-014
rhumerus -27.7863 -17.9973 -77.8518
rradius 23.824
rwrist 32.0038
rhand -19.5437 -26.3503
rfingers 7.12502
rthumb 6.78032 -56.2217
lclavicle -1.64494e-014 2.94201e-014
lhumerus -25.028 3.63992 86.1887
lradius 16.3135
lwrist 1.71181
lhand -25.3989 -3.78099
lfingers 7.12502
lthumb 1.12633 26.1958
rfemur -10.905 -2.52615 20.1071
rtibia 19.9075
rfoot -13.4216 -1.79805
rtoes 10.5513
lfemur -9.76705 6.11274 -17.5452
ltibia 18.3629
lfoot -11.2296 4.65232
ltoes -0.633541
117
root 0.533655 17.5552 -13.7729 5.12949 -1.55893 -1.8934
lowerback -2.71949 -0.322496 0.427841
upperback 2.38099 -0.513572 1.72683
thorax 3.9899 -0.27006 1.50884
lowerneck -13.9115 0.227066 -2.17058
upperneck 30.0441 0.645273 0.848867
head 12.1874 0.145314 0.788126
rclavicle 7.90169e-015 -5.76476e-015
rhumerus -27.7946 -17.9915 -77.8515
rradius 23.8292
rwrist 31.9987
rhand -19.5475 -26.3414
rfingers 7.12502
rthumb 6.77667 -56.2129
lclavicle 7.90169e-015 -5.76476e-015
lhumerus -25.013 3.64377 86.1915
lradius 16.3213
lwrist 1.72722
lhand -25.3518 -3.6703
lfingers 7.12502
lthumb 1.17183 26.3062
rfemur -10.9065 -2.5153 20.113
rtibia 19.904
rfoot -13.4204 -1.80986
rtoes 10.5565
lfemur -9.77401 6.11481 -17.5398
ltibia 18.3679
lfoot -11.2302 4.65143
ltoes -0.651426
118
root 0.534092 17.5551 -13.7729 5.13076 -1.55726 -1.89645
lowerback -2.72137 -0.32232 0.429406
upperback 2.38113 -0.513517 1.72896
thorax 3.99112 -0.270023 1.51015
lowerneck -13.9163 0.229899 -2.16496
upperneck 30.0429 0.649823 0.842972
head 12.1879 0.147241 0.785596
rclavicle -1.41634e-014 -1.25234e-014
rhumerus -27.7977 -17.9817 -77.8556
rradius 23.838
rwrist 31.9854
rhand -19.5467 -26.3433
rfingers 7.12502
rthumb 6.77742 -56.2149
lclavicle -1.41634e-014 -1.25234e-014
lhumerus -24.9939 3.64969 86.193
lradius 16.316
lwrist 1.70852
lhand -25.3484 -3.69013
lfingers 7.12502
lthumb 1.17504 26.2864
rfemur -10.9055 -2.50751 20.1149
rtibia 19.9
rfoot -13.4196 -1.81976
rtoes 10.5587
lfemur -9.77775 6.11822 -17.5382
ltibia 18.3716
lfoot -11.2321 4.64796
ltoes -0.665415
119
root 0.534564 17.555 -13.7729 5.13098 -1.55454 -1.89693
lowerback -2.7239 -0.322598 0.42901
upperback 2.38253 -0.513973 1.73004
thorax 3.99404 -0.270287 1.51145
lowerneck -13.9188 0.233658 -2.15503
upperneck 30.0391 0.655507 0.833718
head 12.1869 0.149754 0.781182
rclavicle 4.91992e-015 -2.90226e-014
rhumerus -27.798 -17.969 -77.8621
rradius 23.8465
rwrist 31.9696
rhand -19.5482 -26.3471
rfingers 7.12502
rthumb 6.776 -56.2186
lclavicle 4.91992e-015 -2.90226e-014
lhumerus -24.9748 3.65136 86.1958
lradius 16.3135
lwrist 1.69612
lhand -25.3471 -3.70599
lfingers 7.12502
lthumb 1.17631 26.2705
rfemur -10.903 -2.50154 20.1138
rtibia 19.8959
rfoot -13.4188 -1.82862
rtoes 10.5607
lfemur -9.77922 6.12064 -17.5394
ltibia 18.3736
lfoot -11.2351 4.64409
ltoes -0.676681
120
root 0.535034 17.5549 -13.7729 5.13027 -1.55229 -1.89748
lowerback -2.7261 -0.323216 0.428145
upperback 2.38482 -0.5149 1.73181
thorax 3.99771 -0.270813 1.51371
lowerneck -13.9225 0.238256 -2.14369
upperneck 30.0341 0.662754 0.822176
head 12.1856 0.152837 0.775881
rclavicle -3.8266e-015 2.54444e-014
rhumerus -27.7947 -17.9551 -77.8699
rradius 23.8552
rwrist 31.9529
rhand -19.5459 -26.3563
rfingers 7.12502
rthumb 6.77816 -56.2278
lclavicle -3.8266e-015 2.54444e-014
lhumerus -24.9554 3.65214 86.201
lradius 16.3163
lwrist 1.69528
lhand -25.3374 -3.6916
lfingers 7.12502
lthumb 1.18568 26.2848
rfemur -10.8996 -2.49368 20.1127
rtibia 19.8917
rfoot -13.4178 -1.83928
rtoes 10.554
lfemur -9.77853 6.12324 -17.5404
ltibia 18.3742
lfoot -11.2388 4.63905
ltoes -0.676849
121
root 0.535559 17.5549 -13.7729 5.12912 -1.55031 -1.89686
lowerback -2.72781 -0.324339 0.42557
upperback 2.3875 -0.51645 1.73432
thorax 4.00155 -0.271711 1.51765
lowerneck -13.9245 0.242401 -2.13786
upperneck 30.0276 0.670171 0.812689
head 12.1834 0.155647 0.772314
rclavicle 4.96962e-016 8.34896e-015
rhumerus -27.7882 -17.939 -77.8775
rradius 23.8619
rwrist 31.9396
rhand -19.5426 -26.3701
rfingers 7.12502
rthumb 6.78138 -56.2415
lclavicle 4.96962e-016 8.34896e-015
lhumerus -24.9352 3.65411 86.208
lradius 16.3189
lwrist 1.70054
lhand -25.3396 -3.69515
lfingers 7.12502
lthumb 1.18359 26.2813
rfemur -10.8958 -2.48862 20.1101
rtibia 19.8875
rfoot -13.4166 -1.84678
rtoes 10.5462
lfemur -9.77713 6.1247 -17.5428
ltibia 18.3752
lfoot -11.2431 4.63514
ltoes -0.682389
122
root 0.536063 17.5549 -13.773 5.12781 -1.54915 -1.89843
lowerback -2.72889 -0.324883 0.424974
upperback 2.39029 -0.51733 1.73738
thorax 4.00512 -0.272228 1.52109
lowerneck -13.9213 0.245445 -2.13645
upperneck 30.0156 0.67616 0.806098
head 12.1778 0.157744 0.770333
rclavicle 8.49804e-015 2.5842e-015
rhumerus -27.7789 -17.9246 -77.8852
rradius 23.8671
rwrist 31.9276
rhand -19.5362 -26.3856
rfingers 7.12502
rthumb 6.7876 -56.2568
lclavicle 8.49804e-015 2.5842e-015
lhumerus -24.9134 3.66139 86.2142
lradius 16.3219
lwrist 1.70993
lhand -25.3404 -3.69307
lfingers 7.12502
lthumb 1.18283 26.2834
rfemur -10.8921 -2.48423 20.1101
rtibia 19.8832
rfoot -13.4161 -1.8538
rtoes 10.5278
lfemur -9.77619 6.12653 -17.5425
ltibia 18.3777
lfoot -11.2482 4.63009
ltoes -0.679353
123
root 0.536557 17.5549 -13.7733 5.12687 -1.54784 -1.90079
lowerback -2.72846 -0.325666 0.423454
upperback 2.39221 -0.518508 1.74203
thorax 4.00696 -0.27294 1.52667
lowerneck -13.9155 0.247675 -2.14095
upperneck 30.0031 0.681848 0.801679
head 12.1715 0.159323 0.770136
rclavicle 2.48481e-016 1.5704e-014
rhumerus -27.7701 -17.9045 -77.8928
rradius 23.8742
rwrist 31.915
rhand -19.535 -26.398
rfingers 7.12502
rthumb 6.78872 -56.2692
lclavicle 2.48481e-016 1.5704e-014
lhumerus -24.8905 3.67346 86.2211
lradius 16.3222
lwrist 1.7205
lhand -25.3402 -3.6932
lfingers 7.12502
lthumb 1.18301 26.2833
rfemur -10.8896 -2.48172 20.1111
rtibia 19.8794
rfoot -13.4155 -1.86018
rtoes 10.5068
lfemur -9.77674 6.12826 -17.5415
ltibia 18.3816
lfoot -11.2537 4.62539
ltoes -0.67572
124
root 0.537048 17.555 -13.7736 5.12609 -1.54652 -1.9025
lowerback -2.7276 -0.325869 0.421218
upperback 2.39481 -0.518862 1.74607
thorax 4.00925 -0.273256 1.53209
lowerneck -13.9079 0.248613 -2.14667
upperneck 29.9884 0.685277 0.799418
head 12.164 0.160058 0.770614
rclavicle 4.96962e-016 -1.07344e-014
rhumerus -27.7584 -17.8892 -77.9002
rradius 23.8811
rwrist 31.905
rhand -19.5336 -26.4087
rfingers 7.12502
rthumb 6.79006 -56.2798
lclavicle 4.96962e-016 -1.07344e-014
lhumerus -24.8659 3.68686 86.2275
lradius 16.3214
lwrist 1.72789
lhand -25.3493 -3.71324
lfingers 7.12502
lthumb 1.17419 26.2633
rfemur -10.8881 -2.48056 20.1113
rtibia 19.8762
rfoot -13.4157 -1.86576
rtoes 10.489
lfemur -9.7789 6.12948 -17.5413
ltibia 18.387
lfoot -11.2593 4.62154
ltoes -0.6665
125
root 0.537557 17.555 -13.774 5.12592 -1.54616 -1.90352
lowerback -2.7267 -0.326072 0.417602
upperback 2.3971 -0.519158 1.75042
thorax 4.0112 -0.273585 1.5386
lowerneck -13.9051 0.249813 -2.15065
upperneck 29.9791 0.689427 0.794965
head 12.1597 0.160979 0.770133
rclavicle 8.44835e-016 -5.1684e-015
rhumerus -27.7464 -17.8701 -77.9082
rradius 23.8886
rwrist 31.8954
rhand -19.5416 -26.4093
rfingers 7.12502
rthumb 6.78232 -56.2807
lclavicle 8.44835e-016 -5.1684e-015
lhumerus -24.8427 3.69715 86.2358
lradius 16.3213
lwrist 1.73823
lhand -25.3613 -3.72933
lfingers 7.12502
lthumb 1.16257 26.2472
rfemur -10.888 -2.47995 20.1104
rtibia 19.8744
rfoot -13.4166 -1.86894
rtoes 10.482
lfemur -9.78273 6.1312 -17.5422
ltibia 18.3929
lfoot -11.2641 4.61785
ltoes -0.65204
126
root 0.538046 17.5551 -13.7744 5.12686 -1.54635 -1.90346
lowerback -2.72696 -0.326178 0.412743
upperback 2.40072 -0.519282 1.75403
thorax 4.0152 -0.273861 1.54506
lowerneck -13.9039 0.251388 -2.1498
upperneck 29.9709 0.693917 0.787024
head 12.1561 0.162138 0.767567
rclavicle 3.52843e-015 -7.7526e-015
rhumerus -27.7309 -17.851 -77.9188
rradius 23.8983
rwrist 31.8789
rhand -19.5502 -26.4129
rfingers 7.12502
rthumb 6.77404 -56.2845
lclavicle 3.52843e-015 -7.7526e-015
lhumerus -24.8186 3.70909 86.2435
lradius 16.3213
lwrist 1.74186
lhand -25.3742 -3.7516
lfingers 7.12502
lthumb 1.15017 26.225
rfemur -10.8906 -2.47678 20.1082
rtibia 19.8739
rfoot -13.416 -1.873
rtoes 10.4839
lfemur -9.78819 6.13081 -17.5443
ltibia 18.3981
lfoot -11.2666 4.61572
ltoes -0.630212
